<svg width="80" height="10" viewBox="0 0 80 10" fill="none" xmlns="http://www.w3.org/2000/svg">
<path d="M1.404 9.12C1.268 9.12 1.16 9.08 1.08 9C1 8.912 0.96 8.792 0.96 8.64V2.04C0.96 1.592 1.092 1.24 1.356 0.983999C1.628 0.727999 2.004 0.599999 2.484 0.599999H6.204C6.516 0.599999 6.672 0.727999 6.672 0.983999C6.672 1.096 6.632 1.184 6.552 1.248C6.472 1.312 6.356 1.344 6.204 1.344H2.496C2.304 1.344 2.148 1.408 2.028 1.536C1.916 1.664 1.86 1.832 1.86 2.04V4.452H5.292C5.604 4.452 5.76 4.58 5.76 4.836C5.76 4.956 5.716 5.048 5.628 5.112C5.548 5.176 5.436 5.208 5.292 5.208H1.86V8.64C1.86 8.792 1.82 8.912 1.74 9C1.66 9.08 1.548 9.12 1.404 9.12ZM8.08088 9.12C7.94488 9.12 7.83688 9.08 7.75688 9C7.68488 8.912 7.64888 8.792 7.64888 8.64V3.48C7.64888 3.328 7.68488 3.212 7.75688 3.132C7.82888 3.044 7.93688 3 8.08088 3C8.21688 3 8.32088 3.044 8.39288 3.132C8.47288 3.212 8.51288 3.328 8.51288 3.48V4.2C9.05688 3.48 9.80888 3.12 10.7689 3.12H11.0689C11.2209 3.12 11.3409 3.156 11.4289 3.228C11.5169 3.292 11.5609 3.384 11.5609 3.504C11.5609 3.624 11.5169 3.716 11.4289 3.78C11.3409 3.844 11.2209 3.876 11.0689 3.876H10.7329C10.0529 3.876 9.51288 4.072 9.11288 4.464C8.72088 4.848 8.52488 5.372 8.52488 6.036V8.64C8.52488 8.784 8.48488 8.9 8.40488 8.988C8.33288 9.076 8.22488 9.12 8.08088 9.12ZM14.4735 9.12C13.6895 9.12 13.0735 8.948 12.6255 8.604C12.1855 8.26 11.9655 7.784 11.9655 7.176C11.9655 6.576 12.1975 6.1 12.6615 5.748C13.1335 5.396 13.7735 5.22 14.5815 5.22C15.0535 5.22 15.4695 5.284 15.8295 5.412C16.1975 5.54 16.4815 5.712 16.6815 5.928V5.16C16.6815 4.704 16.5295 4.356 16.2255 4.116C15.9295 3.876 15.4935 3.756 14.9175 3.756C14.1735 3.756 13.5295 3.932 12.9855 4.284C12.8495 4.364 12.7375 4.404 12.6495 4.404C12.5695 4.404 12.4895 4.372 12.4095 4.308C12.3215 4.236 12.2775 4.144 12.2775 4.032C12.2775 3.912 12.3295 3.812 12.4335 3.732C12.7215 3.508 13.0855 3.332 13.5255 3.204C13.9735 3.068 14.4295 3 14.8935 3C15.7415 3 16.3975 3.192 16.8615 3.576C17.3335 3.96 17.5695 4.5 17.5695 5.196V8.652C17.5695 8.964 17.4255 9.12 17.1375 9.12C17.0095 9.12 16.9055 9.08 16.8255 9C16.7455 8.912 16.7055 8.8 16.7055 8.664V8.232C16.2095 8.824 15.4655 9.12 14.4735 9.12ZM14.5815 8.388C15.2055 8.388 15.7135 8.272 16.1055 8.04C16.4975 7.8 16.6935 7.492 16.6935 7.116C16.6935 6.74 16.5095 6.452 16.1415 6.252C15.7815 6.044 15.2695 5.94 14.6055 5.94C14.0455 5.94 13.6135 6.048 13.3095 6.264C13.0055 6.472 12.8535 6.776 12.8535 7.176C12.8535 7.568 13.0015 7.868 13.2975 8.076C13.5935 8.284 14.0215 8.388 14.5815 8.388ZM19.6356 9.12C19.4996 9.12 19.3916 9.08 19.3116 9C19.2396 8.912 19.2036 8.792 19.2036 8.64V3.48C19.2036 3.328 19.2396 3.212 19.3116 3.132C19.3836 3.044 19.4916 3 19.6356 3C19.7716 3 19.8756 3.044 19.9476 3.132C20.0276 3.212 20.0676 3.328 20.0676 3.48V4.188C20.3636 3.796 20.7196 3.5 21.1356 3.3C21.5596 3.1 22.0236 3 22.5276 3C23.2876 3 23.8716 3.212 24.2796 3.636C24.6956 4.06 24.9036 4.668 24.9036 5.46V8.64C24.9036 8.792 24.8636 8.912 24.7836 9C24.7036 9.08 24.5956 9.12 24.4596 9.12C24.3156 9.12 24.2076 9.08 24.1356 9C24.0636 8.912 24.0276 8.792 24.0276 8.64V5.46C24.0276 4.324 23.4916 3.756 22.4196 3.756C21.7156 3.756 21.1476 3.964 20.7156 4.38C20.2916 4.796 20.0796 5.348 20.0796 6.036V8.64C20.0796 8.784 20.0396 8.9 19.9596 8.988C19.8876 9.076 19.7796 9.12 19.6356 9.12ZM29.4435 9.12C28.8035 9.12 28.2395 8.996 27.7515 8.748C27.2635 8.492 26.8875 8.132 26.6235 7.668C26.3595 7.204 26.2275 6.664 26.2275 6.048C26.2275 5.44 26.3595 4.908 26.6235 4.452C26.8875 3.988 27.2635 3.632 27.7515 3.384C28.2395 3.128 28.8035 3 29.4435 3C30.0435 3 30.5635 3.084 31.0035 3.252C31.4435 3.42 31.7915 3.668 32.0475 3.996C32.1115 4.084 32.1435 4.168 32.1435 4.248C32.1435 4.368 32.0835 4.476 31.9635 4.572C31.9075 4.62 31.8355 4.644 31.7475 4.644C31.6115 4.644 31.4835 4.584 31.3635 4.464C30.9395 3.992 30.2995 3.756 29.4435 3.756C28.6995 3.756 28.1235 3.956 27.7155 4.356C27.3155 4.748 27.1155 5.312 27.1155 6.048C27.1155 6.776 27.3195 7.344 27.7275 7.752C28.1355 8.16 28.7075 8.364 29.4435 8.364C29.8515 8.364 30.2275 8.304 30.5715 8.184C30.9155 8.056 31.1995 7.876 31.4235 7.644C31.5595 7.508 31.6875 7.44 31.8075 7.44C31.8795 7.44 31.9595 7.472 32.0475 7.536C32.1595 7.632 32.2155 7.736 32.2155 7.848C32.2155 7.952 32.1715 8.04 32.0835 8.112C31.6915 8.464 31.2835 8.72 30.8595 8.88C30.4355 9.04 29.9635 9.12 29.4435 9.12ZM36.0422 9.12C35.2582 9.12 34.6422 8.896 34.1942 8.448C33.7542 8 33.5342 7.376 33.5342 6.576V3.48C33.5342 3.328 33.5742 3.212 33.6542 3.132C33.7342 3.044 33.8422 3 33.9782 3C34.1142 3 34.2182 3.044 34.2902 3.132C34.3702 3.212 34.4102 3.328 34.4102 3.48V6.576C34.4102 7.144 34.5622 7.584 34.8662 7.896C35.1702 8.208 35.5942 8.364 36.1382 8.364C36.5702 8.364 36.9542 8.268 37.2902 8.076C37.6262 7.884 37.8862 7.616 38.0702 7.272C38.2622 6.928 38.3582 6.532 38.3582 6.084V3.48C38.3582 3.328 38.3942 3.212 38.4662 3.132C38.5462 3.044 38.6582 3 38.8022 3C38.9382 3 39.0422 3.044 39.1142 3.132C39.1942 3.212 39.2342 3.328 39.2342 3.48V8.64C39.2342 8.792 39.1942 8.912 39.1142 9C39.0422 9.08 38.9382 9.12 38.8022 9.12C38.6582 9.12 38.5462 9.076 38.4662 8.988C38.3942 8.9 38.3582 8.784 38.3582 8.64V7.932C38.0622 8.316 37.7182 8.612 37.3262 8.82C36.9342 9.02 36.5062 9.12 36.0422 9.12ZM43.8581 9.12C42.8181 9.12 42.0141 8.852 41.4461 8.316C40.8781 7.78 40.5941 7.02 40.5941 6.036C40.5941 5.092 40.8821 4.352 41.4581 3.816C42.0341 3.272 42.8221 3 43.8221 3C44.4381 3 44.9861 3.1 45.4661 3.3C45.9461 3.492 46.3181 3.768 46.5821 4.128C46.8541 4.48 46.9901 4.884 46.9901 5.34C46.9901 5.676 46.8941 5.936 46.7021 6.12C46.5181 6.304 46.2621 6.396 45.9341 6.396H41.4941C41.4941 7.012 41.7021 7.496 42.1181 7.848C42.5341 8.192 43.1141 8.364 43.8581 8.364C44.3141 8.364 44.7061 8.316 45.0341 8.22C45.3621 8.116 45.6701 7.952 45.9581 7.728C46.1101 7.6 46.2341 7.536 46.3301 7.536C46.4021 7.536 46.4701 7.568 46.5341 7.632C46.6461 7.728 46.7021 7.828 46.7021 7.932C46.7021 8.012 46.6541 8.1 46.5581 8.196C46.2301 8.508 45.8461 8.74 45.4061 8.892C44.9661 9.044 44.4501 9.12 43.8581 9.12ZM45.6701 5.688C45.8141 5.688 45.9221 5.66 45.9941 5.604C46.0661 5.54 46.1021 5.428 46.1021 5.268C46.1021 4.98 46.0061 4.72 45.8141 4.488C45.6221 4.256 45.3501 4.076 44.9981 3.948C44.6541 3.82 44.2621 3.756 43.8221 3.756C43.1101 3.756 42.5461 3.932 42.1301 4.284C41.7221 4.628 41.5181 5.096 41.5181 5.688H45.6701ZM55.5428 9.12C54.7108 9.12 53.9788 8.944 53.3468 8.592C52.7228 8.232 52.2388 7.728 51.8948 7.08C51.5508 6.424 51.3788 5.668 51.3788 4.812C51.3788 3.948 51.5508 3.188 51.8948 2.532C52.2388 1.876 52.7228 1.372 53.3468 1.02C53.9788 0.66 54.7068 0.48 55.5308 0.48C56.2188 0.48 56.8508 0.595999 57.4268 0.827999C58.0108 1.06 58.4668 1.384 58.7948 1.8C58.8588 1.872 58.8908 1.96 58.8908 2.064C58.8908 2.192 58.8348 2.296 58.7228 2.376C58.6508 2.424 58.5708 2.448 58.4828 2.448C58.3308 2.448 58.2028 2.388 58.0988 2.268C57.8428 1.94 57.4948 1.688 57.0547 1.512C56.6148 1.336 56.1068 1.248 55.5308 1.248C54.8668 1.248 54.2908 1.392 53.8027 1.68C53.3148 1.968 52.9388 2.38 52.6748 2.916C52.4188 3.452 52.2908 4.084 52.2908 4.812C52.2908 5.532 52.4188 6.16 52.6748 6.696C52.9388 7.224 53.3148 7.632 53.8027 7.92C54.2988 8.208 54.8788 8.352 55.5428 8.352C56.1588 8.352 56.6948 8.264 57.1508 8.088C57.6148 7.904 57.9788 7.652 58.2428 7.332C58.3628 7.204 58.4908 7.14 58.6268 7.14C58.7228 7.14 58.8028 7.168 58.8668 7.224C58.9788 7.32 59.0348 7.424 59.0348 7.536C59.0348 7.632 58.9988 7.724 58.9268 7.812C58.5988 8.212 58.1308 8.532 57.5228 8.772C56.9228 9.004 56.2628 9.12 55.5428 9.12ZM60.5956 2.1C60.5956 1.644 60.7276 1.28 60.9916 1.008C61.2636 0.736 61.6556 0.599999 62.1676 0.599999H64.4116C66.5876 0.599999 67.6756 1.504 67.6756 3.312C67.6756 4.184 67.4116 4.844 66.8836 5.292C66.3556 5.74 65.5596 5.964 64.4956 5.964L66.8236 8.376C66.8956 8.448 66.9316 8.54 66.9316 8.652C66.9316 8.796 66.8716 8.912 66.7516 9C66.6556 9.072 66.5556 9.108 66.4516 9.108C66.2916 9.108 66.1396 9.028 65.9956 8.868L63.2356 5.964H61.6156V8.604C61.6156 8.764 61.5676 8.892 61.4716 8.988C61.3836 9.076 61.2596 9.12 61.0996 9.12C60.9396 9.12 60.8156 9.076 60.7276 8.988C60.6396 8.892 60.5956 8.764 60.5956 8.604V2.1ZM64.4716 5.136C65.2076 5.136 65.7516 5 66.1036 4.728C66.4636 4.448 66.6436 3.976 66.6436 3.312C66.6436 2.64 66.4636 2.16 66.1036 1.872C65.7436 1.576 65.1996 1.428 64.4716 1.428H62.2276C62.0436 1.428 61.8956 1.488 61.7836 1.608C61.6716 1.728 61.6156 1.892 61.6156 2.1V5.136H64.4716ZM69.6292 9.12C69.4932 9.12 69.3852 9.08 69.3052 9C69.2252 8.912 69.1852 8.792 69.1852 8.64V3.216C69.1852 2.368 69.4252 1.7 69.9052 1.212C70.3852 0.724 71.0452 0.48 71.8852 0.48C72.3732 0.48 72.8212 0.608 73.2292 0.864C73.6452 1.112 73.9572 1.444 74.1652 1.86C74.3732 1.436 74.6772 1.1 75.0772 0.852C75.4852 0.604 75.9412 0.48 76.4452 0.48C77.2852 0.48 77.9452 0.724 78.4252 1.212C78.9052 1.692 79.1452 2.36 79.1452 3.216V8.64C79.1452 8.792 79.1012 8.912 79.0132 9C78.9332 9.08 78.8252 9.12 78.6892 9.12C78.5452 9.12 78.4332 9.08 78.3532 9C78.2812 8.912 78.2452 8.792 78.2452 8.64V3.216C78.2452 2.584 78.1012 2.1 77.8132 1.764C77.5332 1.428 77.0692 1.26 76.4212 1.26C75.8532 1.26 75.4092 1.436 75.0892 1.788C74.7692 2.132 74.6092 2.608 74.6092 3.216V8.64C74.6092 8.792 74.5692 8.912 74.4892 9C74.4092 9.08 74.3012 9.12 74.1652 9.12C74.0292 9.12 73.9212 9.08 73.8412 9C73.7692 8.912 73.7332 8.792 73.7332 8.64V3.216C73.7332 2.624 73.5652 2.152 73.2292 1.8C72.8932 1.44 72.4532 1.26 71.9092 1.26C71.2612 1.26 70.7932 1.428 70.5052 1.764C70.2252 2.1 70.0852 2.584 70.0852 3.216V8.64C70.0852 8.792 70.0452 8.912 69.9652 9C69.8852 9.08 69.7732 9.12 69.6292 9.12Z" fill="white"/>
</svg>
